<svg width="62" height="30" viewBox="0 0 62 30" fill="none" xmlns="http://www.w3.org/2000/svg">
<path d="M56.95 0H5C1.04 0 0 3.26 0 4.99V24.97C0 28.92 3.27 29.97 5 29.97H56.95C60.9 29.97 61.95 26.7 61.95 24.97V4.99C61.95 1.04 58.681 0 56.95 0ZM37.981 1.99H45.981V13.98H47.981V21.98H37.981V1.99ZM25.991 13.98H27.981V1.99H35.981V21.98H25.991V13.98ZM13.991 13.98H15.991V1.99H21.991V13.98H23.991V21.98H13.991V13.98ZM2.00099 5C2.00099 4.5 2.18099 1.99 5.00099 1.99H9.991V13.98H11.991V21.98H2.00099V5ZM59.95 24.97C59.94 25.47 59.77 27.97 56.95 27.97H5C4.5 27.96 2 27.79 2 24.97V23.98H59.95V24.97ZM59.95 21.98H49.98V13.98H51.98V1.99H56.95C57.45 2 59.95 2.17 59.95 4.99V21.98Z" fill="white"/>
</svg>
