<svg width="66" height="76" viewBox="0 0 66 76" fill="none" xmlns="http://www.w3.org/2000/svg">
<path d="M27.537 62.7505C21.293 67.4155 16.352 70.9845 0.620001 75.5335C27.291 60.4155 36.632 44.8055 36.263 22.8055C36.133 15.0595 29.124 5.94552 19.056 6.17852C16.857 6.23052 9.348 5.37153 3.384 15.3375C4.68 14.4225 6.254 13.8735 7.962 13.8735C12.359 13.8735 15.924 17.4375 15.924 21.8355C15.924 26.2335 12.359 29.7985 7.962 29.7985C3.565 29.7985 0 26.2335 0 21.8355C0 21.1635 0.109001 20.5215 0.266001 19.8965L0 20.0455C0.957 11.7955 5.62 6.85253 9.017 4.56253C13.309 1.66953 18.575 -0.177471 23.8 0.0135292C41.679 0.672529 45.264 15.6975 45.958 20.5645C48.677 39.6435 37.739 55.1295 27.537 62.7505ZM60.11 7.00152C57.292 7.00152 55.007 9.28553 55.007 12.1035C55.007 14.9205 57.292 17.2055 60.11 17.2055C62.928 17.2055 65.213 14.9215 65.213 12.1035C65.212 9.28553 62.928 7.00152 60.11 7.00152ZM60.11 31.0425C57.292 31.0425 55.007 33.3265 55.007 36.1455C55.007 38.9625 57.292 41.2475 60.11 41.2475C62.928 41.2475 65.213 38.9635 65.213 36.1455C65.212 33.3275 62.928 31.0425 60.11 31.0425Z" fill="white"/>
</svg>
