<svg width="26" height="16" viewBox="0 0 26 16" fill="none" xmlns="http://www.w3.org/2000/svg">
<path d="M21.4028 4.49655C21.9668 5.27155 22.2988 6.26257 22.2048 7.24057C22.1408 8.22357 21.8168 9.18755 21.3288 10.0825C20.3538 11.8785 18.7068 13.3626 16.7998 14.4096C14.8828 15.4476 12.6228 16.0366 10.3838 15.9756C8.20076 15.9196 5.84276 15.2706 4.68476 13.6076C3.54776 11.9326 3.97979 9.81855 4.86979 8.06155C5.77879 6.26155 7.36378 4.70856 9.28278 3.66256C11.1988 2.62356 13.4378 1.97855 15.7008 2.00055C16.8278 2.01855 17.9598 2.18455 18.9858 2.58255C20.0108 2.96155 20.9208 3.62854 21.3988 4.48755L21.3998 4.48956L21.4028 4.49655ZM20.8618 4.77456C19.6938 3.45356 17.5918 3.28457 15.7908 3.63357C13.9508 3.97357 12.2108 4.68056 10.6018 5.55056C9.00578 6.43456 7.44578 7.42055 6.19178 8.72155C5.58578 9.37455 5.07278 10.1226 4.86378 10.9396C4.62878 11.7496 4.74479 12.6215 5.23579 13.3065C5.72679 13.9985 6.56677 14.4456 7.47977 14.6266C8.39977 14.8046 9.37479 14.7486 10.3048 14.5676C12.1748 14.1886 13.8928 13.4296 15.5038 12.5586C17.1078 11.6736 18.6058 10.6175 19.7908 9.31555C20.9388 8.04955 21.7698 6.28256 20.8618 4.77456Z" fill="white"/>
<line x1="-8.74228e-08" y1="1" x2="26" y2="0.999998" stroke="white" stroke-width="2"/>
</svg>
