<svg width="19" height="14" viewBox="0 0 19 14" fill="none" xmlns="http://www.w3.org/2000/svg">
<path d="M17.4028 2.49655C17.9668 3.27155 18.2988 4.26257 18.2048 5.24057C18.1408 6.22357 17.8168 7.18755 17.3288 8.08255C16.3538 9.87855 14.7068 11.3626 12.7998 12.4096C10.8828 13.4476 8.62276 14.0366 6.38376 13.9756C4.20076 13.9196 1.84276 13.2706 0.68476 11.6076C-0.45224 9.93257 -0.0202121 7.81855 0.869788 6.06155C1.77879 4.26155 3.36378 2.70856 5.28278 1.66256C7.19878 0.623563 9.43778 -0.0214546 11.7008 0.000545444C12.8278 0.0185454 13.9598 0.184546 14.9858 0.582546C16.0108 0.961546 16.9208 1.62854 17.3988 2.48755L17.3998 2.48956L17.4028 2.49655ZM16.8618 2.77456C15.6938 1.45356 13.5918 1.28457 11.7908 1.63357C9.95078 1.97357 8.21078 2.68056 6.60178 3.55056C5.00578 4.43456 3.44578 5.42055 2.19178 6.72155C1.58578 7.37455 1.07278 8.12257 0.863776 8.93957C0.628776 9.74957 0.744785 10.6215 1.23579 11.3065C1.72679 11.9985 2.56677 12.4456 3.47977 12.6266C4.39977 12.8046 5.37479 12.7486 6.30479 12.5676C8.17479 12.1886 9.89276 11.4296 11.5038 10.5586C13.1078 9.67356 14.6058 8.61755 15.7908 7.31555C16.9388 6.04955 17.7698 4.28256 16.8618 2.77456Z" fill="white"/>
</svg>
