<svg width="26" height="14" viewBox="0 0 26 14" fill="none" xmlns="http://www.w3.org/2000/svg">
<path d="M21.4028 2.49655C21.9668 3.27155 22.2988 4.26257 22.2048 5.24057C22.1408 6.22357 21.8168 7.18755 21.3288 8.08255C20.3538 9.87855 18.7068 11.3626 16.7998 12.4096C14.8828 13.4476 12.6228 14.0366 10.3838 13.9756C8.20076 13.9196 5.84276 13.2706 4.68476 11.6076C3.54776 9.93257 3.97979 7.81855 4.86979 6.06155C5.77879 4.26155 7.36378 2.70856 9.28278 1.66256C11.1988 0.623563 13.4378 -0.0214546 15.7008 0.000545444C16.8278 0.0185454 17.9598 0.184546 18.9858 0.582546C20.0108 0.961546 20.9208 1.62854 21.3988 2.48755L21.3998 2.48956L21.4028 2.49655ZM20.8618 2.77456C19.6938 1.45356 17.5918 1.28457 15.7908 1.63357C13.9508 1.97357 12.2108 2.68056 10.6018 3.55056C9.00578 4.43456 7.44578 5.42055 6.19178 6.72155C5.58578 7.37455 5.07278 8.12257 4.86378 8.93957C4.62878 9.74957 4.74479 10.6215 5.23579 11.3065C5.72679 11.9985 6.56677 12.4456 7.47977 12.6266C8.39977 12.8046 9.37479 12.7486 10.3048 12.5676C12.1748 12.1886 13.8928 11.4296 15.5038 10.5586C17.1078 9.67356 18.6058 8.61755 19.7908 7.31555C20.9388 6.04955 21.7698 4.28256 20.8618 2.77456Z" fill="white"/>
<line x1="-8.74228e-08" y1="7" x2="26" y2="7" stroke="white" stroke-width="2"/>
</svg>
