<svg width="49" height="131" viewBox="0 0 49 131" fill="none" xmlns="http://www.w3.org/2000/svg">
<path d="M23.101 91.3667C21.203 87.9637 16.448 75.0447 28.229 71.9767C32.949 70.7477 37.366 73.4257 39.246 76.7557C41.176 80.1707 43.135 93.3617 29.931 97.1687C24.339 98.7817 15.423 96.6287 11.461 92.3077C-1.98501 77.6457 11.721 64.0027 13.405 62.0107C19.642 54.6397 43.297 41.9207 37.52 9.59467C36.994 6.65067 35.823 3.41467 33.436 1.46867C29.202 -1.98433 24.741 1.28767 22.073 4.73967C18.784 8.99367 17.421 18.3877 17.699 23.6137C18.66 41.6457 24.511 59.8137 24.746 61.0407C25.151 63.1457 30.101 82.0057 30.498 83.3177C36.817 104.218 36.866 111.712 35.897 118.434C34.764 126.292 23.86 131.972 18.672 124.453C20.491 124.672 25.152 122.422 24.751 117.593C24.23 111.34 18.759 110.037 14.59 112.035C10.628 113.933 9.64599 119.594 12.245 124.105C15.198 129.229 24.577 132.355 31.263 129.142C46.001 122.061 34.036 87.2467 32.219 81.2047C30.182 74.4337 19.117 36.6417 20.669 21.2897C21.45 13.5607 27.182 6.17867 31.177 9.82667C35.501 13.7737 34.563 21.2027 33.955 23.8067C31.999 32.1897 26.247 38.7907 20.06 44.3867C14.055 49.8187 7.00399 56.5237 3.12499 63.7517C-1.11301 71.6517 -0.443005 84.6057 5.644 91.8007C7.719 94.2537 12.939 99.3567 20.928 100.486C32.882 102.175 49.578 96.5727 48.37 78.8627C47.307 63.2877 29.195 59.1507 20.231 66.5807C18.195 68.2687 16.426 70.5957 15.464 73.2017C12.907 80.1307 16.02 89.3967 23.101 91.3667Z" fill="white"/>
</svg>
